<svg width="32" height="46" viewBox="0 0 32 46" fill="none" xmlns="http://www.w3.org/2000/svg">
<path d="M21.5917 18.176C24.621 19.072 27.0743 20.6507 28.9517 22.912C30.8717 25.1307 31.8317 27.8187 31.8317 30.976C31.8317 35.584 30.2743 39.1893 27.1597 41.792C24.0877 44.3947 20.3117 45.696 15.8317 45.696C12.333 45.696 9.19701 44.9067 6.42368 43.328C3.69301 41.7067 1.70901 39.3387 0.47168 36.224L8.02368 31.872C9.13301 35.328 11.7357 37.056 15.8317 37.056C18.093 37.056 19.8423 36.5227 21.0797 35.456C22.3597 34.3467 22.9997 32.8533 22.9997 30.976C22.9997 29.1413 22.3597 27.6693 21.0797 26.56C19.8423 25.4507 18.093 24.896 15.8317 24.896H13.9117L10.5197 19.776L19.3517 8.256H1.81568V0H29.9757V7.296L21.5917 18.176Z" fill="#8D86C9"/>
</svg>
