<svg width="17" height="15" viewBox="0 0 17 15" fill="none" xmlns="http://www.w3.org/2000/svg">
<path fill-rule="evenodd" clip-rule="evenodd" d="M0.750221 7.5C0.750221 7.75693 0.852284 8.00334 1.03396 8.18501C1.21564 8.36669 1.46204 8.46875 1.71897 8.46875L12.9429 8.46875L8.7831 12.6266C8.69302 12.7167 8.62158 12.8236 8.57283 12.9413C8.52409 13.059 8.499 13.1851 8.499 13.3125C8.499 13.4399 8.52409 13.566 8.57283 13.6837C8.62158 13.8014 8.69302 13.9083 8.7831 13.9984C8.87317 14.0884 8.98009 14.1599 9.09778 14.2086C9.21546 14.2574 9.34159 14.2825 9.46897 14.2825C9.59635 14.2825 9.72248 14.2574 9.84016 14.2086C9.95785 14.1599 10.0648 14.0884 10.1548 13.9984L15.9673 8.18588C16.0576 8.09589 16.1291 7.98899 16.178 7.87129C16.2268 7.7536 16.252 7.62743 16.252 7.5C16.252 7.37258 16.2268 7.24641 16.178 7.12871C16.1291 7.01102 16.0576 6.90412 15.9673 6.81413L10.1548 1.00163C9.97294 0.819723 9.72622 0.717529 9.46897 0.717529C9.21172 0.717529 8.965 0.819723 8.7831 1.00163C8.60119 1.18353 8.499 1.43025 8.499 1.6875C8.499 1.94476 8.60119 2.19147 8.7831 2.37338L12.9429 6.53125L1.71897 6.53125C1.46204 6.53125 1.21564 6.63332 1.03396 6.81499C0.852284 6.99667 0.750221 7.24307 0.750221 7.5Z" fill="white"/>
</svg>
