<svg width="17" height="15" viewBox="0 0 17 15" fill="none" xmlns="http://www.w3.org/2000/svg">
<path fill-rule="evenodd" clip-rule="evenodd" d="M16.2498 7.5C16.2498 7.75693 16.1477 8.00334 15.966 8.18501C15.7844 8.36669 15.538 8.46875 15.281 8.46875L4.05709 8.46875L8.2169 12.6266C8.30698 12.7167 8.37842 12.8236 8.42717 12.9413C8.47591 13.059 8.501 13.1851 8.501 13.3125C8.501 13.4399 8.47591 13.566 8.42717 13.6837C8.37842 13.8014 8.30698 13.9083 8.2169 13.9984C8.12683 14.0884 8.01991 14.1599 7.90222 14.2086C7.78454 14.2574 7.65841 14.2825 7.53103 14.2825C7.40365 14.2825 7.27752 14.2574 7.15984 14.2086C7.04215 14.1599 6.93522 14.0884 6.84515 13.9984L1.03265 8.18588C0.942438 8.09589 0.870861 7.98899 0.822023 7.87129C0.773186 7.7536 0.748047 7.62743 0.748047 7.5C0.748047 7.37258 0.773185 7.24641 0.822023 7.12871C0.87086 7.01102 0.942438 6.90412 1.03265 6.81413L6.84515 1.00163C7.02706 0.819723 7.27378 0.717529 7.53103 0.717529C7.78828 0.717529 8.035 0.819723 8.2169 1.00163C8.39881 1.18353 8.501 1.43025 8.501 1.6875C8.501 1.94476 8.39881 2.19147 8.2169 2.37338L4.05709 6.53125L15.281 6.53125C15.538 6.53125 15.7844 6.63332 15.966 6.81499C16.1477 6.99667 16.2498 7.24307 16.2498 7.5Z" fill="white"/>
</svg>
