<svg width="21" height="20" viewBox="0 0 21 20" fill="none" xmlns="http://www.w3.org/2000/svg">
<path d="M16.2515 20H2.50146C1.83842 20 1.20254 19.7366 0.733698 19.2678C0.264857 18.7989 0.00146484 18.163 0.00146484 17.5V3.75C0.00146484 3.08696 0.264857 2.45107 0.733698 1.98223C1.20254 1.51339 1.83842 1.25 2.50146 1.25H7.50147V3.75H2.50146V17.5H16.2515V12.5H18.7515V17.5C18.7515 18.163 18.4881 18.7989 18.0192 19.2678C17.5504 19.7366 16.9145 20 16.2515 20ZM9.62646 12.1337L7.86397 10.3663L15.7302 2.5H11.2515V0H20.0015V8.75H17.5015V4.26875L9.62646 12.1337Z" fill="white"/>
</svg>
