<svg width="24" height="14" viewBox="0 0 24 14" fill="none" xmlns="http://www.w3.org/2000/svg">
<path d="M23.9624 1.03253C24.1665 1.56866 23.5397 2.81961 22.0821 4.78539C21.8781 5.05345 21.6157 5.41087 21.2951 5.85764C20.6246 6.69161 20.2456 7.24262 20.1582 7.51068C20.0124 7.8681 20.0707 8.21062 20.3331 8.53825C20.4788 8.71696 20.8141 9.07437 21.3388 9.6105H21.3825V9.65517C22.5777 10.7572 23.3794 11.6954 23.7875 12.4698L23.875 12.6485L23.9624 12.9836V13.408L23.6563 13.7431L22.913 13.8995L19.7209 13.9888C19.5168 14.0186 19.2763 13.9888 18.9994 13.8995C18.7225 13.8101 18.5111 13.7208 18.3654 13.6314L18.103 13.4527C17.8406 13.274 17.5491 13.0059 17.2284 12.6485C16.9078 12.2911 16.6236 11.9635 16.3758 11.6656C16.128 11.3678 15.8729 11.1221 15.6105 10.9285C15.3482 10.7349 15.115 10.6678 14.9109 10.7274C14.8818 10.7274 14.8453 10.7423 14.8016 10.7721C14.7579 10.8019 14.685 10.8689 14.583 10.9731C14.4809 11.0774 14.3935 11.204 14.3206 11.3529C14.2477 11.5018 14.1821 11.7178 14.1238 12.0007C14.0655 12.2837 14.0364 12.6187 14.0364 13.0059C14.0364 13.1251 14.0218 13.2368 13.9926 13.341C13.9635 13.4453 13.9343 13.5272 13.9052 13.5867L13.8615 13.6314C13.6866 13.8101 13.4533 13.8995 13.1618 13.8995H11.7626C11.1504 13.959 10.5309 13.8995 9.90417 13.7208C9.27742 13.5421 8.73083 13.3112 8.26441 13.0283C7.79799 12.7453 7.37529 12.4624 6.99632 12.1794C6.61736 11.8965 6.32584 11.6507 6.12178 11.4422L5.81569 11.1295C5.72824 11.0699 5.61163 10.9508 5.46588 10.7721C5.32012 10.5934 5.02132 10.2062 4.56947 9.6105C4.11763 9.0148 3.67307 8.37443 3.2358 7.68939C2.79853 7.00434 2.28838 6.10336 1.70535 4.98644C1.12233 3.86952 0.583027 2.71536 0.0874541 1.52398C0.0291513 1.37506 0 1.25592 0 1.16656C0 1.07721 0.0145757 1.00275 0.043727 0.943179L0.0874541 0.898502C0.204059 0.719794 0.43727 0.63044 0.787086 0.63044H4.24152C4.32898 0.63044 4.41643 0.652779 4.50388 0.697456L4.72252 0.809148L4.76625 0.853825C4.912 0.943179 5.01403 1.07721 5.07233 1.25592C5.24724 1.6729 5.44401 2.11222 5.66265 2.57389C5.88128 3.03555 6.0489 3.38552 6.16551 3.62379L6.34042 3.98121C6.60278 4.48755 6.84328 4.92687 7.06191 5.29918C7.28055 5.67148 7.47732 5.96188 7.65223 6.17037C7.82714 6.37887 8.00205 6.54268 8.17695 6.66182C8.35186 6.78096 8.49762 6.84053 8.61422 6.84053C8.73083 6.84053 8.84743 6.82564 8.96404 6.79585L9.00777 6.72884L9.16081 6.43844L9.33572 5.85764L9.44504 4.83007V3.2217C9.41589 2.89407 9.37216 2.58878 9.31386 2.30582C9.25555 2.02287 9.19725 1.82182 9.13895 1.70269L9.09522 1.56866C8.89116 1.27081 8.52677 1.07721 8.00205 0.987856C7.91459 0.987856 7.94374 0.88361 8.0895 0.675117C8.23526 0.526194 8.39559 0.407056 8.5705 0.317702C9.00777 0.0794256 9.99891 -0.0248205 11.5439 0.0049641C12.2144 0.0049641 12.7829 0.0645333 13.2493 0.183672C13.395 0.213456 13.5262 0.265579 13.6428 0.340041C13.7594 0.414502 13.8469 0.518748 13.9052 0.652779C13.9635 0.78681 14.0072 0.92084 14.0364 1.05487C14.0655 1.1889 14.0801 1.3825 14.0801 1.63567V2.32816C14.051 2.56644 14.0364 2.86429 14.0364 3.2217V4.29395C14.0364 4.3833 14.0291 4.56201 14.0145 4.83007C13.9999 5.09813 13.9926 5.30662 13.9926 5.45554C13.9926 5.60447 14.0072 5.77573 14.0364 5.96933C14.0655 6.16293 14.1165 6.32674 14.1894 6.46077C14.2623 6.59481 14.357 6.69161 14.4736 6.75117C14.5319 6.78096 14.5975 6.8033 14.6704 6.81819C14.7433 6.83308 14.8526 6.78841 14.9984 6.68416C15.1441 6.57991 15.3045 6.43099 15.4794 6.23739C15.6543 6.04379 15.8729 5.75339 16.1353 5.36619C16.3976 4.97899 16.6746 4.53222 16.9661 4.02588C17.4617 3.13235 17.9135 2.16435 18.3216 1.12189C18.3508 1.06232 18.3872 0.995302 18.4309 0.92084C18.4747 0.846379 18.5257 0.794256 18.584 0.764471H18.6277L18.6714 0.719794L18.8463 0.675117H19.1087L22.6943 0.63044C23.015 0.600656 23.2846 0.615548 23.5033 0.675117C23.7219 0.734687 23.8458 0.809148 23.875 0.898502L23.9624 1.03253Z" fill="white"/>
</svg>
