<svg width="30" height="20" viewBox="0 0 30 20" fill="none" xmlns="http://www.w3.org/2000/svg">
<path d="M28.797 3.40986C28.634 2.82827 28.3164 2.30172 27.878 1.8862C27.4273 1.4579 26.8748 1.15153 26.2728 0.995997C24.0197 0.402128 14.9929 0.402129 14.9929 0.402129C11.2297 0.359313 7.46748 0.547626 3.72739 0.966004C3.12535 1.13302 2.57392 1.44624 2.12214 1.8778C1.67824 2.30491 1.35671 2.83159 1.18875 3.40866C0.785271 5.58228 0.589233 7.78931 0.60328 10C0.588883 12.2087 0.784439 14.415 1.18875 16.5913C1.35311 17.166 1.67344 17.6903 2.11854 18.1138C2.56365 18.5373 3.11792 18.8433 3.72739 19.0052C6.01048 19.5979 14.9929 19.5979 14.9929 19.5979C18.7609 19.6408 22.5279 19.4524 26.2728 19.034C26.8748 18.8785 27.4273 18.5721 27.878 18.1438C28.3219 17.7203 28.6375 17.1936 28.7958 16.6201C29.2099 14.4474 29.4112 12.2394 29.3969 10.0276C29.428 7.80642 29.227 5.58806 28.797 3.40866V3.40986ZM12.1231 14.1079V5.89331L19.6335 10.0012L12.1231 14.1079Z" fill="white"/>
</svg>
